<svg xmlns="http://www.w3.org/2000/svg" width="180" height="180" viewBox="0 0 180 180" fill="none">
  <rect width="180" height="180" fill="#111827"/>
  <path d="M90 45C64.0265 45 43 66.0265 43 92C43 117.974 64.0265 139 90 139C115.974 139 137 117.974 137 92C137 66.0265 115.974 45 90 45ZM90 55C95.5229 55 100 59.4771 100 65C100 70.5229 95.5229 75 90 75C84.4771 75 80 70.5229 80 65C80 59.4771 84.4771 55 90 55ZM70 95C70 84.5066 78.9543 76 90 76C101.046 76 110 84.5066 110 95V115C110 120.523 105.523 125 100 125H80C74.4772 125 70 120.523 70 115V95Z" fill="#3B82F6"/>
</svg> 